HIERARCHY
ROOT Hips
{
	OFFSET 0.000000 35.082581 0.000000
	CHANNELS 6 Xposition Yposition Zposition Xrotation Yrotation Zrotation 
	JOINT Spine
	{
		OFFSET 0.000000 6.876099 0.125700
		CHANNELS 3 Xrotation Yrotation Zrotation
		JOINT Spine1
		{
			OFFSET 0.000000 5.730043 0.104720
			CHANNELS 3 Xrotation Yrotation Zrotation
			JOINT Spine1_split
			{
				OFFSET 0.000000 5.730043 0.104720
				CHANNELS 3 Xrotation Yrotation Zrotation
				JOINT Spine2
				{
					OFFSET 0.000000 5.730043 0.104720
					CHANNELS 3 Xrotation Yrotation Zrotation
					JOINT Neck
					{
						OFFSET 0.000000 10.314075 0.188496
						CHANNELS 3 Xrotation Yrotation Zrotation
						JOINT Head
						{
							OFFSET 0.000000 7.643700 -2.377400
							CHANNELS 3 Xrotation Yrotation Zrotation
							JOINT HeadTop_End
							{
								OFFSET 0.000000 43.788605 -13.619600
								CHANNELS 3 Xrotation Yrotation Zrotation
								End Site
								{
									OFFSET 0.000000 0.000000 0.000000
								}
							}
						}
					}
					JOINT LeftShoulder
					{
						OFFSET 2.196100 4.412489 0.087492
						CHANNELS 3 Xrotation Yrotation Zrotation
						JOINT LeftShoulder_split
						{
							OFFSET 2.196100 4.412489 0.087492
							CHANNELS 3 Xrotation Yrotation Zrotation
							JOINT LeftArm
							{
								OFFSET 8.771219 -2.981674 -0.026999
								CHANNELS 3 Xrotation Yrotation Zrotation
								JOINT LeftForeArm
								{
									OFFSET 8.512804 0.000000 -0.000000
									CHANNELS 3 Xrotation Yrotation Zrotation
									JOINT LeftHand
									{
										OFFSET 18.484802 0.000000 -0.000000
										CHANNELS 3 Xrotation Yrotation Zrotation
										JOINT LeftHandThumb1
										{
											OFFSET 2.499420 -1.158070 2.653252
											CHANNELS 3 Xrotation Yrotation Zrotation
											JOINT LeftHandThumb2
											{
												OFFSET 2.370079 -1.368366 1.368366
												CHANNELS 3 Xrotation Yrotation Zrotation
												JOINT LeftHandThumb3
												{
													OFFSET 2.676727 -1.545410 1.545409
													CHANNELS 3 Xrotation Yrotation Zrotation
													JOINT LeftHandThumb4
													{
														OFFSET 1.692226 -0.977005 0.977007
														CHANNELS 3 Xrotation Yrotation Zrotation
														End Site
														{
															OFFSET 0.000000 0.000000 0.000000
														}
													}
												}
											}
										}
										JOINT LeftHandIndex1
										{
											OFFSET 7.924831 -0.457527 2.345128
											CHANNELS 3 Xrotation Yrotation Zrotation
											JOINT LeftHandIndex2
											{
												OFFSET 3.643303 0.000000 0.000000
												CHANNELS 3 Xrotation Yrotation Zrotation
												JOINT LeftHandIndex3
												{
													OFFSET 3.810799 0.000000 0.000000
													CHANNELS 3 Xrotation Yrotation Zrotation
													JOINT LeftHandIndex4
													{
														OFFSET 2.403702 0.000000 0.000000
														CHANNELS 3 Xrotation Yrotation Zrotation
														End Site
														{
															OFFSET 0.000000 0.000000 0.000000
														}
													}
												}
											}
										}
										JOINT LeftHandMiddle1
										{
											OFFSET 8.563995 0.000000 -0.000000
											CHANNELS 3 Xrotation Yrotation Zrotation
											JOINT LeftHandMiddle2
											{
												OFFSET 3.861618 0.000000 0.000000
												CHANNELS 3 Xrotation Yrotation Zrotation
												JOINT LeftHandMiddle3
												{
													OFFSET 3.701603 0.000000 0.000000
													CHANNELS 3 Xrotation Yrotation Zrotation
													JOINT LeftHandMiddle4
													{
														OFFSET 2.322544 0.000000 0.000000
														CHANNELS 3 Xrotation Yrotation Zrotation
														End Site
														{
															OFFSET 0.000000 0.000000 0.000000
														}
													}
												}
											}
										}
										JOINT LeftHandRing1
										{
											OFFSET 8.426460 -0.424637 -3.286992
											CHANNELS 3 Xrotation Yrotation Zrotation
											JOINT LeftHandRing2
											{
												OFFSET 3.126408 0.000000 0.000000
												CHANNELS 3 Xrotation Yrotation Zrotation
												JOINT LeftHandRing3
												{
													OFFSET 3.085026 0.000000 0.000000
													CHANNELS 3 Xrotation Yrotation Zrotation
													JOINT LeftHandRing4
													{
														OFFSET 1.644005 0.000000 0.000000
														CHANNELS 3 Xrotation Yrotation Zrotation
														End Site
														{
															OFFSET 0.000000 0.000000 0.000000
														}
													}
												}
											}
										}
									}
								}
							}
						}
					}
					JOINT RightShoulder
					{
						OFFSET -2.196100 4.412496 0.070690
						CHANNELS 3 Xrotation Yrotation Zrotation
						JOINT RightShoulder_split
						{
							OFFSET -2.196100 4.412496 0.070690
							CHANNELS 3 Xrotation Yrotation Zrotation
							JOINT RightArm
							{
								OFFSET -8.771282 -2.981682 -0.094208
								CHANNELS 3 Xrotation Yrotation Zrotation
								JOINT RightForeArm
								{
									OFFSET -8.494598 0.000000 0.000000
									CHANNELS 3 Xrotation Yrotation Zrotation
									JOINT RightHand
									{
										OFFSET -18.483803 0.000000 0.000001
										CHANNELS 3 Xrotation Yrotation Zrotation
										JOINT RightHandThumb1
										{
											OFFSET -2.527351 -1.008072 2.575253
											CHANNELS 3 Xrotation Yrotation Zrotation
											JOINT RightHandThumb2
											{
												OFFSET -2.321518 -1.340328 1.340329
												CHANNELS 3 Xrotation Yrotation Zrotation
												JOINT RightHandThumb3
												{
													OFFSET -2.657753 -1.534454 1.534455
													CHANNELS 3 Xrotation Yrotation Zrotation
													JOINT RightHandThumb4
													{
														OFFSET -1.807510 -1.043568 1.043567
														CHANNELS 3 Xrotation Yrotation Zrotation
														End Site
														{
															OFFSET 0.000000 0.000000 0.000000
														}
													}
												}
											}
										}
										JOINT RightHandIndex1
										{
											OFFSET -8.811420 0.015533 2.887987
											CHANNELS 3 Xrotation Yrotation Zrotation
											JOINT RightHandIndex2
											{
												OFFSET -3.537502 0.000000 0.000000
												CHANNELS 3 Xrotation Yrotation Zrotation
												JOINT RightHandIndex3
												{
													OFFSET -3.356201 0.000000 0.000000
													CHANNELS 3 Xrotation Yrotation Zrotation
													JOINT RightHandIndex4
													{
														OFFSET -1.933098 0.000000 0.000000
														CHANNELS 3 Xrotation Yrotation Zrotation
														End Site
														{
															OFFSET 0.000000 0.000000 0.000000
														}
													}
												}
											}
										}
										JOINT RightHandMiddle1
										{
											OFFSET -8.178135 0.000000 0.000000
											CHANNELS 3 Xrotation Yrotation Zrotation
											JOINT RightHandMiddle2
											{
												OFFSET -3.901302 0.000000 0.000000
												CHANNELS 3 Xrotation Yrotation Zrotation
												JOINT RightHandMiddle3
												{
													OFFSET -3.909599 0.000000 0.000000
													CHANNELS 3 Xrotation Yrotation Zrotation
													JOINT RightHandMiddle4
													{
														OFFSET -2.376003 0.000000 0.000000
														CHANNELS 3 Xrotation Yrotation Zrotation
														End Site
														{
															OFFSET 0.000000 0.000000 0.000000
														}
													}
												}
											}
										}
										JOINT RightHandRing1
										{
											OFFSET -7.559013 0.014137 -2.865403
											CHANNELS 3 Xrotation Yrotation Zrotation
											JOINT RightHandRing2
											{
												OFFSET -3.449306 0.000000 0.000000
												CHANNELS 3 Xrotation Yrotation Zrotation
												JOINT RightHandRing3
												{
													OFFSET -3.362106 0.000000 0.000000
													CHANNELS 3 Xrotation Yrotation Zrotation
													JOINT RightHandRing4
													{
														OFFSET -2.076401 0.000000 0.000000
														CHANNELS 3 Xrotation Yrotation Zrotation
														End Site
														{
															OFFSET 0.000000 0.000000 0.000000
														}
													}
												}
											}
										}
									}
								}
							}
						}
					}
				}
			}
		}
	}
	JOINT LeftUpLeg
	{
		OFFSET 10.205400 -3.823500 0.155100
		CHANNELS 3 Xrotation Yrotation Zrotation
		JOINT LeftLeg
		{
			OFFSET 0.708757 -12.982077 0.567790
			CHANNELS 3 Xrotation Yrotation Zrotation
			JOINT LeftFoot
			{
				OFFSET -0.708756 -10.717838 -2.184338
				CHANNELS 3 Xrotation Yrotation Zrotation
				JOINT LeftToeBase
				{
					OFFSET 0.108149 -7.191104 7.560241
					CHANNELS 3 Xrotation Yrotation Zrotation
					JOINT LeftToe_End
					{
						OFFSET 0.070230 0.081724 4.490308
						CHANNELS 3 Xrotation Yrotation Zrotation
						End Site
						{
							OFFSET 0.000000 0.000000 0.000000
						}
					}
				}
			}
		}
	}
	JOINT RightUpLeg
	{
		OFFSET -10.205400 -3.823500 0.005500
		CHANNELS 3 Xrotation Yrotation Zrotation
		JOINT RightLeg
		{
			OFFSET -0.708756 -12.982134 0.610632
			CHANNELS 3 Xrotation Yrotation Zrotation
			JOINT RightFoot
			{
				OFFSET 0.708754 -10.717769 -1.945823
				CHANNELS 3 Xrotation Yrotation Zrotation
				JOINT RightToeBase
				{
					OFFSET -0.108140 -7.191069 7.372968
					CHANNELS 3 Xrotation Yrotation Zrotation
					JOINT RightToe_End
					{
						OFFSET -0.070227 0.081735 4.479403
						CHANNELS 3 Xrotation Yrotation Zrotation
						End Site
						{
							OFFSET 0.000000 0.000000 0.000000
						}
					}
				}
			}
		}
	}
}
MOTION
Frames: 5
Frame Time: 0.016667
-0.706938 25.804718 3.268085 26.306619 -22.946712 8.821010 14.946803 2.403361 -0.827515 8.954933 1.454248 -0.667644 0.000000 0.000000 0.000000 8.929231 1.567216 -0.769623 -7.642835 3.429839 -7.508570 -43.074776 9.987862 7.921031 0.000000 0.000000 -0.000000 3.858291 -6.469478 9.422134 0.000000 0.000000 0.000000 -49.881066 5.784870 -65.370955 -0.000275 -89.198418 -0.000565 6.361859 1.183422 20.596036 -17.636593 -15.237858 2.797057 5.947428 34.911655 2.502020 0.571362 15.024036 3.781420 -0.000002 -0.000006 -0.000000 0.388059 -2.283062 19.290703 0.587315 2.787373 -23.793314 0.148324 1.424270 -11.889507 0.000000 0.000000 -0.000002 0.388687 -2.284890 19.306722 0.588115 2.789134 -23.809336 0.148328 1.424266 -11.889516 -0.000003 -0.000000 -0.000003 0.388058 -2.283066 19.290705 0.587325 2.787371 -23.793312 0.148318 1.424269 -11.889511 0.000002 0.000000 -0.000001 3.960234 12.222868 4.273389 0.000000 0.000000 0.000000 -38.946917 11.840056 48.020830 -0.000224 93.734887 0.000126 19.436160 10.205506 7.992486 30.641403 13.211233 -0.281798 7.057626 -37.365895 -1.833688 -0.060057 -14.189604 -3.533734 -0.000001 0.000000 -0.000000 0.155610 1.465710 -12.119893 0.379776 -2.270643 18.987429 0.095563 -1.151072 9.489959 -0.000000 0.000002 -0.000001 0.155605 1.465713 -12.119892 0.379772 -2.270640 18.987432 0.095564 -1.151077 9.489961 -0.000001 -0.000001 0.000002 0.155614 1.465708 -12.119894 0.379792 -2.270646 18.987422 0.095545 -1.151063 9.489964 0.000001 -0.000002 -0.000003 -76.996982 -9.850101 32.014913 70.134199 -8.196785 4.231762 -11.323386 5.388180 -26.865217 -0.000055 -0.000006 0.000055 -0.000000 -0.000000 0.000000 -65.086136 -0.268133 -32.882119 72.908035 8.014232 -6.703839 -25.823173 -9.494240 24.873421 -7.629913 0.000042 0.000007 -0.000001 0.000001 0.000000 
-0.711077 25.833891 3.290750 26.431632 -23.009656 8.876131 14.954668 2.268877 -0.867408 8.942653 1.377980 -0.669286 0.000000 0.000000 0.000000 8.917265 1.494828 -0.768343 -7.594620 3.504784 -7.365771 -43.161318 10.368546 7.992466 -0.000001 -0.000000 0.000000 3.797567 -6.379673 8.897817 0.000000 0.000000 0.000000 -49.025086 5.833144 -65.558601 -0.000509 -90.336225 -0.000546 6.494229 1.888092 21.591261 -17.777639 -15.392974 2.760377 5.958627 35.079940 2.510951 0.577787 15.107957 3.788487 -0.000004 -0.000005 -0.000001 0.392790 -2.296493 19.408848 0.610794 2.839945 -24.271484 0.154325 1.452432 -12.128175 -0.000003 0.000000 0.000001 0.393422 -2.298316 19.424846 0.611598 2.841710 -24.287490 0.154310 1.452412 -12.128170 -0.000003 0.000001 0.000001 0.392796 -2.296494 19.408848 0.610794 2.839946 -24.271492 0.154301 1.452427 -12.128168 -0.000000 0.000001 -0.000002 3.972546 12.168658 4.140076 0.000000 0.000000 0.000000 -38.744470 11.705570 49.039973 -0.000048 95.072026 -0.000006 22.139749 11.186740 7.333655 30.626435 13.316670 -0.202573 7.068278 -37.497790 -1.838795 -0.055207 -14.255388 -3.539804 0.000001 -0.000000 0.000001 0.168385 1.523977 -12.609636 0.421776 -2.389086 20.020273 0.106182 -1.212995 10.005746 -0.000002 0.000001 -0.000003 0.168381 1.523984 -12.609649 0.421759 -2.389090 20.020294 0.106196 -1.213012 10.005744 -0.000003 -0.000000 0.000003 0.168377 1.523984 -12.609639 0.421775 -2.389091 20.020277 0.106183 -1.212999 10.005749 -0.000002 0.000001 -0.000002 -76.934404 -9.770784 32.054723 70.066662 -8.228866 4.262427 -11.445729 5.420976 -26.900668 -0.000038 0.000004 0.000057 -0.000000 -0.000000 0.000000 -65.106333 -0.356086 -32.754500 72.724166 7.823686 -6.846682 -25.787473 -9.340605 24.882092 -7.664885 0.000057 0.000001 0.000000 0.000001 0.000000 
-0.719352 25.851744 3.309091 26.578319 -23.089487 8.947976 14.960809 2.122377 -0.887486 8.932690 1.291001 -0.662407 0.000000 0.000000 0.000000 8.908011 1.411637 -0.757965 -7.575333 3.601990 -7.236713 -43.266673 10.835728 8.058442 -0.000000 0.000000 0.000000 3.730450 -6.286358 8.218673 0.000000 0.000000 0.000000 -48.220220 5.755352 -65.566565 0.000146 -91.419446 0.000258 6.568287 2.351846 22.524207 -17.920190 -15.550478 2.725517 5.970001 35.250490 2.519952 0.584304 15.193027 3.795666 -0.000002 -0.000003 -0.000000 0.397597 -2.310106 19.528563 0.616495 2.852533 -24.386243 0.155761 1.459166 -12.185443 -0.000003 -0.000001 -0.000003 0.398243 -2.311918 19.544569 0.617295 2.854287 -24.402256 0.155762 1.459161 -12.185438 0.000002 -0.000001 0.000001 0.397595 -2.310107 19.528570 0.616508 2.852533 -24.386248 0.155764 1.459158 -12.185437 -0.000002 -0.000000 0.000001 3.981636 12.107278 3.979428 0.000000 0.000000 0.000000 -38.415829 11.620502 49.978772 -0.000105 96.616502 0.000050 23.882052 11.595331 6.699879 30.612881 13.427165 -0.120945 7.079117 -37.631474 -1.843940 -0.050286 -14.322044 -3.545935 -0.000000 -0.000003 0.000001 0.181671 1.582213 -13.100015 0.465949 -2.506946 21.054753 0.117413 -1.274907 10.522294 -0.000001 0.000000 -0.000001 0.181671 1.582217 -13.100019 0.465946 -2.506951 21.054755 0.117422 -1.274908 10.522291 -0.000002 -0.000000 -0.000000 0.181670 1.582208 -13.100013 0.465953 -2.506942 21.054753 0.117400 -1.274899 10.522295 -0.000001 -0.000001 0.000001 -76.887679 -9.732786 32.118459 70.039321 -8.253758 4.294124 -11.579345 5.467167 -26.976092 -0.000052 -0.000010 0.000040 -0.000000 0.000000 -0.000000 -65.192967 -0.398873 -32.600264 72.612554 7.770592 -6.965529 -25.760371 -9.312714 24.842836 -7.690364 0.000060 0.000000 0.000000 -0.000001 -0.000001 
-0.732439 25.858641 3.322899 26.745226 -23.181382 9.039031 14.969662 1.974446 -0.885174 8.925390 1.196951 -0.646763 0.000000 0.000000 0.000000 8.901924 1.320520 -0.738013 -7.587599 3.716967 -7.129052 -43.384993 11.376620 8.087227 0.000000 0.000000 0.000000 3.660233 -6.192012 7.427220 0.000000 0.000000 0.000000 -47.464043 5.638787 -65.420979 -0.000121 -92.434063 -0.000146 6.579939 2.602504 23.316917 -18.073954 -15.721282 2.690537 5.981489 35.423444 2.529109 0.590872 15.279282 3.802930 -0.000004 -0.000003 -0.000000 0.402495 -2.323871 19.649969 0.622294 2.865289 -24.502605 0.157244 1.466010 -12.243525 -0.000003 -0.000001 -0.000001 0.403142 -2.325691 19.665984 0.623105 2.867033 -24.518639 0.157249 1.466023 -12.243534 -0.000001 0.000001 0.000000 0.402484 -2.323877 19.649966 0.622317 2.865286 -24.502616 0.157234 1.466013 -12.243529 0.000000 -0.000000 -0.000003 3.982096 12.033540 3.810707 0.000000 0.000000 0.000000 -38.063295 11.622200 50.879623 -0.000063 98.202076 0.000027 24.991830 11.467097 6.028750 30.609442 13.454880 -0.100494 7.090082 -37.767029 -1.849175 -0.045305 -14.389646 -3.552149 0.000001 -0.000000 0.000001 0.195490 1.640394 -13.591123 0.512318 -2.624126 22.090903 0.129213 -1.336832 11.039582 0.000001 0.000000 -0.000001 0.195477 1.640404 -13.591120 0.512355 -2.624138 22.090894 0.129181 -1.336818 11.039593 -0.000003 -0.000000 -0.000000 0.195491 1.640389 -13.591106 0.512346 -2.624127 22.090893 0.129188 -1.336815 11.039584 -0.000001 -0.000001 0.000001 -76.858234 -9.725894 32.199926 70.041787 -8.272317 4.330920 -11.717402 5.523089 -27.083553 -0.000000 0.000003 0.000009 0.000000 -0.000000 0.000000 -65.337494 -0.393891 -32.431852 72.570603 7.720894 -7.088061 -25.748823 -9.298657 24.823786 -7.701309 0.000061 0.000010 -0.000001 -0.000000 -0.000000 
-0.750783 25.854795 3.331985 26.923141 -23.281123 9.146547 14.987860 1.837289 -0.862315 8.922834 1.103809 -0.624601 0.000000 0.000000 0.000000 8.900820 1.229002 -0.711225 -7.629434 3.839549 -7.045021 -43.504425 11.961173 8.054575 -0.000000 -0.000000 0.000000 3.590617 -6.098781 6.593867 0.000000 0.000000 0.000000 -46.754735 5.551529 -65.181253 -0.000091 -93.371712 -0.000073 6.523315 2.702675 23.936263 -18.169415 -15.827765 2.670100 5.993092 35.598642 2.538355 0.597535 15.366665 3.810272 -0.000002 -0.000002 -0.000000 0.407506 -2.337819 19.772978 0.628210 2.878182 -24.620513 0.158759 1.472956 -12.302364 -0.000002 0.000000 -0.000000 0.408165 -2.339629 19.788979 0.629008 2.879950 -24.636538 0.158762 1.472961 -12.302370 -0.000001 0.000001 0.000001 0.407504 -2.337816 19.772966 0.628209 2.878181 -24.620506 0.158754 1.472957 -12.302376 0.000002 0.000000 0.000001 3.972967 11.944945 3.645301 0.000000 0.000000 0.000000 -37.723890 11.625853 51.744219 0.000047 99.854941 -0.000094 25.802677 10.947401 5.350517 30.610569 13.445921 -0.107116 7.101191 -37.904347 -1.854457 -0.040246 -14.458115 -3.558403 0.000000 0.000000 -0.000000 0.209816 1.698522 -14.082954 0.560893 -2.740616 23.128679 0.141571 -1.398688 11.557634 -0.000000 -0.000001 -0.000004 0.209806 1.698527 -14.082954 0.560895 -2.740618 23.128680 0.141560 -1.398679 11.557638 -0.000003 -0.000002 -0.000001 0.209809 1.698530 -14.082953 0.560885 -2.740620 23.128685 0.141576 -1.398688 11.557623 -0.000001 -0.000001 -0.000003 -76.843624 -9.740519 32.296915 70.069067 -8.291232 4.375616 -11.855831 5.586222 -27.216154 -0.000077 -0.000003 0.000076 -0.000000 0.000000 0.000000 -65.526998 -0.328947 -32.277780 72.578608 7.714197 -7.206210 -25.697308 -9.301774 24.893879 -7.700027 0.000044 -0.000003 -0.000000 -0.000002 0.000000 
